<svg width="20" height="20" viewBox="0 0 34 34" fill="none" xmlns="http://www.w3.org/2000/svg">
<path d="M17 34C14.6979 34 12.4954 33.5518 10.3926 32.6553C8.28971 31.7588 6.48014 30.5524 4.96387 29.0361C3.44759 27.5199 2.24121 25.7103 1.34473 23.6074C0.448242 21.5046 0 19.3021 0 17C0 14.6979 0.448242 12.4954 1.34473 10.3926C2.24121 8.28971 3.44759 6.48014 4.96387 4.96387C6.48014 3.44759 8.28971 2.24121 10.3926 1.34473C12.4954 0.448242 14.6979 0 17 0C19.3021 0 21.5046 0.448242 23.6074 1.34473C25.7103 2.24121 27.5199 3.44759 29.0361 4.96387C30.5524 6.48014 31.7588 8.28971 32.6553 10.3926C33.5518 12.4954 34 14.6979 34 17C34 19.3021 33.5518 21.5046 32.6553 23.6074C31.7588 25.7103 30.5524 27.5199 29.0361 29.0361C27.5199 30.5524 25.7103 31.7588 23.6074 32.6553C21.5046 33.5518 19.3021 34 17 34ZM18.0625 6.93945C17.6419 6.54102 17.2878 6.3418 17 6.3418C16.7122 6.3418 16.3581 6.54102 15.9375 6.93945L6.375 23.4414C6.375 23.9284 6.4248 24.3213 6.52441 24.6201C6.62402 24.9189 6.79004 25.1237 7.02246 25.2344C7.25488 25.3451 7.46517 25.417 7.65332 25.4502C7.84147 25.4834 8.1237 25.5 8.5 25.5H25.5C25.8542 25.5 26.1364 25.4834 26.3467 25.4502C26.557 25.417 26.7728 25.3395 26.9941 25.2178C27.2155 25.096 27.376 24.8857 27.4756 24.5869C27.5752 24.2881 27.625 23.9062 27.625 23.4414L18.0625 6.93945ZM17 9.5625L25.5 23.375H8.5L17 9.5625Z" fill="white"/>
</svg>
